<svg width="47" height="46" viewBox="0 0 47 46" fill="none" xmlns="http://www.w3.org/2000/svg">
<path d="M45.441 23.5616L43.5244 21.645L29.16 7.28056C29.158 7.27865 29.1561 7.27673 29.1533 7.27386L24.3578 2.47837L22.4411 0.561708C21.6936 -0.186748 20.4784 -0.186748 19.7309 0.561708C18.9825 1.31016 18.9825 2.52341 19.7309 3.27187L20.5695 4.11041L3.48724 31.441L3.27449 31.2283C2.52699 30.4798 1.31183 30.4798 0.564333 31.2283C-0.184123 31.9767 -0.184123 33.19 0.564333 33.9384L2.48099 35.8551L10.1476 43.5218L12.0643 45.4384C12.4381 45.8131 12.9287 46 13.4194 46C13.91 46 14.4007 45.8131 14.7745 45.4384C15.5229 44.69 15.5229 43.4767 14.7745 42.7283L14.5617 42.5155L16.8818 41.0656C17.9302 43.4048 20.2772 45.0417 23.0027 45.0417C26.7018 45.0417 29.711 42.0325 29.711 38.3334C29.711 36.7099 29.1283 35.2082 28.1384 34.0295L41.8923 25.4333L42.7309 26.2718C43.1046 26.6465 43.5953 26.8334 44.086 26.8334C44.5766 26.8334 45.0673 26.6465 45.441 26.2718C46.1895 25.5233 46.1895 24.3101 45.441 23.5616ZM23.0027 41.2083C21.6428 41.2083 20.5014 40.2596 20.2034 38.9888L24.8178 36.1052C25.4733 36.6429 25.8777 37.4613 25.8777 38.3334C25.8777 39.9184 24.5878 41.2083 23.0027 41.2083ZM23.0257 32.7041L17.2144 36.3343C17.2096 36.3372 17.2067 36.341 17.2019 36.3439L11.7797 39.7325L6.26928 34.2221L23.3515 6.89148L25.3286 8.86852L16.6164 21.9363C16.0289 22.817 16.2675 24.0073 17.1482 24.5938C17.4741 24.8132 17.844 24.9167 18.2091 24.9167C18.8282 24.9167 19.4367 24.6168 19.8057 24.0628L28.0924 11.6333L39.1103 22.6512L23.0257 32.7041Z"/>
</svg>
