<svg width="38" height="40" viewBox="0 0 38 40" fill="none" xmlns="http://www.w3.org/2000/svg">
<path d="M32.2348 2.19636C31.1093 2.19636 30.0594 2.52444 29.1732 3.08767V1.33117C29.1732 0.596092 28.5772 0 27.8421 0H10.2715C9.53641 0 8.94032 0.596092 8.94032 1.33117V3.08767C8.05426 2.5243 7.00443 2.19636 5.87892 2.19636C2.7227 2.19636 0.155029 4.76402 0.155029 7.92011C0.155029 11.0762 2.7227 13.644 5.87892 13.644H8.07527C8.55231 13.644 8.94045 14.0321 8.94045 14.5092C8.94045 14.9862 8.55231 15.3744 8.07527 15.3744C7.34019 15.3744 6.7441 15.9705 6.7441 16.7055C6.7441 17.4406 7.34019 18.0367 8.07527 18.0367C8.71204 18.0367 9.30921 17.8662 9.82543 17.57C10.3068 18.9003 10.9759 20.1038 11.8191 21.123C12.8559 22.3764 14.1093 23.3157 15.4973 23.905C15.4373 24.6535 15.2647 25.9802 14.7693 27.276C13.8757 29.6128 12.4044 30.7487 10.2715 30.7487H8.07514C7.34005 30.7487 6.74396 31.3447 6.74396 32.0799V38.6688C6.74396 39.4039 7.34005 40 8.07514 40H30.0384C30.7735 40 31.3696 39.4039 31.3696 38.6688V32.0799C31.3696 31.3447 30.7735 30.7487 30.0384 30.7487H27.8421C25.7092 30.7487 24.2379 29.6127 23.3444 27.276C22.8488 25.9801 22.6766 24.6534 22.6165 23.905C24.0046 23.3157 25.2578 22.3764 26.2946 21.123C27.138 20.1039 27.8071 18.9003 28.2884 17.57C28.8046 17.8662 29.4019 18.0367 30.0386 18.0367C30.7736 18.0367 31.3697 17.4406 31.3697 16.7055C31.3697 15.9705 30.7736 15.3744 30.0386 15.3744C29.5615 15.3744 29.1734 14.9862 29.1734 14.5092C29.1734 14.0321 29.5615 13.644 30.0386 13.644H32.2349C35.391 13.644 37.9585 11.0762 37.9585 7.92011C37.9585 4.76402 35.3907 2.19636 32.2348 2.19636ZM8.07514 10.9816H5.87878C4.19057 10.9816 2.81711 9.60832 2.81711 7.91997C2.81711 6.2319 4.19057 4.85857 5.87878 4.85857C7.56686 4.85857 8.94018 6.2319 8.94018 7.91997V11.0891C8.66328 11.0192 8.37359 10.9816 8.07514 10.9816ZM28.7073 33.4108V37.3375H9.40631V33.4108H28.7073ZM20.8304 28.1545C21.2055 29.1549 21.6867 30.0224 22.2624 30.7487H15.8511C16.4268 30.0224 16.9081 29.1549 17.2832 28.1545C17.7819 26.8244 18.0067 25.504 18.1081 24.5751C18.421 24.6073 18.7373 24.6256 19.0568 24.6256C19.3762 24.6256 19.6926 24.6073 20.0055 24.5751C20.1069 25.504 20.3317 26.8244 20.8304 28.1545ZM19.0568 21.9633C14.7376 21.9633 11.6025 17.9047 11.6025 12.3128V2.66235H26.5109V12.3128C26.511 17.9047 23.376 21.9633 19.0568 21.9633ZM32.2348 10.9816H30.0384C29.74 10.9816 29.4503 11.0192 29.1732 11.0893V7.92011C29.1732 6.23203 30.5466 4.8587 32.2348 4.8587C33.9229 4.8587 35.2962 6.23203 35.2962 7.92011C35.2962 9.60832 33.9229 10.9816 32.2348 10.9816Z" />
</svg>
