<svg width="46" height="46" viewBox="0 0 46 46" fill="none" xmlns="http://www.w3.org/2000/svg">
<path d="M44.0833 9.58333H38.3333V1.91667C38.3333 0.858667 37.4747 0 36.4167 0H5.75C2.57887 0 0 2.57887 0 5.75V40.25C0 43.4211 2.57887 46 5.75 46H40.25C43.4211 46 46 43.4211 46 40.25V11.5C46 10.442 45.1413 9.58333 44.0833 9.58333ZM5.75 42.1667C4.69296 42.1667 3.83333 41.307 3.83333 40.25V5.75C3.83333 4.69296 4.69296 3.83333 5.75 3.83333H34.5V11.5V40.25C34.5 40.9227 34.6227 41.5658 34.8354 42.1667H5.75ZM42.1667 40.25C42.1667 41.307 41.307 42.1667 40.25 42.1667C39.193 42.1667 38.3333 41.307 38.3333 40.25V13.4167H42.1667V40.25Z"/>
<path d="M28.75 9.58337H9.58332C8.52532 9.58337 7.66666 10.442 7.66666 11.5C7.66666 12.558 8.52532 13.4167 9.58332 13.4167H28.75C29.808 13.4167 30.6667 12.558 30.6667 11.5C30.6667 10.442 29.808 9.58337 28.75 9.58337Z"/>
<path d="M24.9167 21.0834H9.58332C8.52532 21.0834 7.66666 21.942 7.66666 23C7.66666 24.058 8.52532 24.9167 9.58332 24.9167H24.9167C25.9747 24.9167 26.8333 24.058 26.8333 23C26.8333 21.942 25.9747 21.0834 24.9167 21.0834Z"/>
<path d="M23 26.8334H9.58332C8.52532 26.8334 7.66666 27.692 7.66666 28.75C7.66666 29.808 8.52532 30.6667 9.58332 30.6667H23C24.058 30.6667 24.9167 29.808 24.9167 28.75C24.9167 27.692 24.058 26.8334 23 26.8334Z"/>
<path d="M21.0833 32.5834H9.58332C8.52532 32.5834 7.66666 33.442 7.66666 34.5C7.66666 35.558 8.52532 36.4167 9.58332 36.4167H21.0833C22.1413 36.4167 23 35.558 23 34.5C23 33.442 22.1413 32.5834 21.0833 32.5834Z"/>
</svg>
