<svg width="42" height="41" viewBox="0 0 42 41" fill="none" xmlns="http://www.w3.org/2000/svg">
<path d="M34.881 22.2069C34.549 22.2069 34.2364 22.2921 33.9636 22.4416L31.5493 21.9518L30.322 19.7635C30.3947 19.5603 30.4362 19.3424 30.4362 19.1144C30.4362 18.0494 29.5737 17.1831 28.5136 17.1831C27.454 17.1831 26.5917 18.0494 26.5917 19.1144C26.5917 19.3421 26.6333 19.5597 26.7057 19.763L25.4783 21.9521L22.9785 22.4592C22.7516 22.3644 22.5031 22.3114 22.2424 22.3114C21.1826 22.3114 20.3203 23.1779 20.3203 24.243C20.3203 25.2838 21.1447 26.1325 22.1714 26.1706L23.6064 27.7399L23.3164 30.2627C22.7874 30.607 22.4358 31.2041 22.4358 31.8832C22.4358 32.9483 23.2983 33.8148 24.3585 33.8148C25.2475 33.8148 25.9952 33.2044 26.214 32.3794L28.5136 31.3214L30.8137 32.3794C31.0326 33.2044 31.7803 33.8148 32.6693 33.8148C33.7292 33.8148 34.5916 32.9483 34.5916 31.8832C34.5916 31.2044 34.2402 30.607 33.7113 30.2627L33.4209 27.7399L34.9513 26.0665C35.9785 26.0286 36.803 25.1797 36.803 24.1386C36.8034 23.0734 35.941 22.2069 34.881 22.2069ZM28.5136 28.3624C28.3126 28.3624 28.1116 28.4055 27.9248 28.4913L26.2678 29.2537L26.4781 27.4237C26.5245 27.0186 26.3933 26.6132 26.1182 26.3124L24.8716 24.9492L26.671 24.5842C27.0728 24.5027 27.419 24.2501 27.6195 23.8925L28.5136 22.2979L29.4082 23.8928C29.6086 24.2503 29.955 24.5027 30.3565 24.5842L32.1557 24.9492L30.909 26.3123C30.6338 26.6132 30.5024 27.0187 30.549 27.424L30.7596 29.2538L29.1019 28.4913C28.9154 28.4054 28.7145 28.3624 28.5136 28.3624Z"/>
<path d="M16.2675 20.2183H6.97168C6.19394 20.2183 5.56323 20.8489 5.56323 21.6268C5.56323 22.4047 6.19394 23.0352 6.97168 23.0352H16.2675C17.0452 23.0352 17.6759 22.4047 17.6759 21.6268C17.6759 20.8489 17.0452 20.2183 16.2675 20.2183Z"/>
<path d="M16.2675 24.8662H6.97168C6.19394 24.8662 5.56323 25.4968 5.56323 26.2747C5.56323 27.0525 6.19394 27.6831 6.97168 27.6831H16.2675C17.0452 27.6831 17.6759 27.0525 17.6759 26.2747C17.6759 25.4968 17.0452 24.8662 16.2675 24.8662Z"/>
<path d="M16.2675 29.5141H6.97168C6.19394 29.5141 5.56323 30.1447 5.56323 30.9225C5.56323 31.7004 6.19394 32.331 6.97168 32.331H16.2675C17.0452 32.331 17.6759 31.7004 17.6759 30.9225C17.6759 30.1447 17.0452 29.5141 16.2675 29.5141Z"/>
<path d="M37.4648 9.79578H30.4576V6.55634C30.4576 5.77859 29.827 5.14789 29.0492 5.14789H26.8063C26.1699 2.48535 23.77 0.5 20.9154 0.5C18.0607 0.5 15.6607 2.48535 15.0244 5.14789H12.7815C12.0038 5.14789 11.3731 5.77859 11.3731 6.55634V9.79578H4.3662C1.95859 9.79578 0 11.7544 0 14.162V36.1338C0 38.5414 1.95859 40.5 4.3662 40.5H37.4648C39.8724 40.5 41.831 38.5414 41.831 36.1338V14.162C41.831 11.7544 39.8724 9.79578 37.4648 9.79578ZM14.19 7.96479H16.2675C17.0452 7.96479 17.6759 7.33408 17.6759 6.55634C17.6759 4.77 19.129 3.3169 20.9154 3.3169C22.7017 3.3169 24.1548 4.77 24.1548 6.55634C24.1548 7.33408 24.7855 7.96479 25.5632 7.96479H27.6407V12.1197H14.19V7.96479ZM39.0141 36.1338C39.0141 36.988 38.319 37.6831 37.4648 37.6831H4.3662C3.51197 37.6831 2.8169 36.988 2.8169 36.1338V14.162C2.8169 13.3077 3.51197 12.6127 4.3662 12.6127H11.3731V13.5282C11.3731 14.3059 12.0038 14.9366 12.7815 14.9366H29.0492C29.827 14.9366 30.4576 14.3059 30.4576 13.5282V12.6127H37.4648C38.319 12.6127 39.0141 13.3077 39.0141 14.162V36.1338Z"/>
<path d="M20.9153 7.69491C21.5442 7.69491 22.0539 7.18514 22.0539 6.55632C22.0539 5.92749 21.5442 5.41772 20.9153 5.41772C20.2865 5.41772 19.7767 5.92749 19.7767 6.55632C19.7767 7.18514 20.2865 7.69491 20.9153 7.69491Z"/>
</svg>
