<svg width="46" height="46" viewBox="0 0 46 46" fill="none" xmlns="http://www.w3.org/2000/svg">
<path d="M1.91667 46H44.0833C45.1413 46 46 45.1413 46 44.0833V32.6849C46 29.597 44.7927 26.699 42.6009 24.5245C40.4082 22.3482 37.5215 21.205 34.4088 21.1877C29.1304 21.2289 26.3659 21.2195 24.9167 21.1956V1.91667C24.9167 0.858663 24.058 0 23 0H1.91667C0.858663 0 0 0.858663 0 1.91667V44.0833C0 45.1413 0.858663 46 1.91667 46ZM3.83333 38.3333H7.66667V42.1667H3.83333V38.3333ZM21.0833 38.3333V42.1667H11.5V38.3333H21.0833ZM34.5 38.3333V42.1667H24.9167V38.3333H34.5ZM38.3333 42.1667V38.3333H42.1667V42.1667H38.3333ZM21.0833 3.83333V7.66667H17.25C16.192 7.66667 15.3333 8.52533 15.3333 9.58333C15.3333 10.6413 16.192 11.5 17.25 11.5H21.0833V15.3333H17.25C16.192 15.3333 15.3333 16.192 15.3333 17.25C15.3333 18.308 16.192 19.1667 17.25 19.1667H21.0833V22.9223C21.0707 23.2003 21.118 23.4829 21.2289 23.7496C21.804 25.1216 21.8068 25.1216 34.4387 25.022C36.4972 25.0355 38.4396 25.7964 39.9 27.2465C41.3618 28.6953 42.1667 30.6264 42.1667 32.6849V34.5H3.83333V3.83333H21.0833Z"/>
</svg>
