<svg width="46" height="46" viewBox="0 0 46 46" fill="none" xmlns="http://www.w3.org/2000/svg">
<path d="M44.0833 21.0833H40.2117C40.227 20.7642 40.25 20.446 40.25 20.125C40.25 11.7568 34.9763 4.17163 27.1227 1.24967C27.1074 1.24392 27.0921 1.24008 27.0767 1.23529C27.0729 1.23433 27.07 1.23146 27.0662 1.2305C27.0614 1.22858 27.0566 1.22858 27.0518 1.22763C24.8256 0.414958 22.4969 0 20.125 0C18.5246 0 16.9759 0.207958 15.4828 0.562542C15.3075 0.581708 15.1359 0.627708 14.9711 0.694792C6.36717 2.97946 0 10.8119 0 20.125C0 20.2103 0.0105417 20.2946 0.0115 20.3799C0.014375 20.4298 0.0115 20.4805 0.0182083 20.5285C0.112125 25.1668 1.79592 29.6412 4.80796 33.1631C4.80892 33.1641 4.81083 33.166 4.81179 33.167C4.81371 33.1689 4.81562 33.1708 4.81754 33.1737C8.64896 37.6711 14.2274 40.25 20.125 40.25H37.5389L42.7282 45.4384C43.0943 45.8055 43.585 46 44.0833 46C44.3296 46 44.5798 45.9521 44.8165 45.8543C45.5333 45.5572 46 44.8586 46 44.0833V23C46 21.942 45.1413 21.0833 44.0833 21.0833ZM25.1064 13.1608L27.6077 5.66375C32.9427 8.43908 36.4167 14.0195 36.4167 20.125C36.4167 20.4451 36.4071 20.7652 36.3889 21.0833H31.487C30.9216 19.9851 30.0782 19.0507 29.0135 18.3808L26.3963 16.7574C25.186 15.9984 24.656 14.5178 25.1064 13.1608ZM13.9073 5.07246L14.5216 7.52962C14.836 8.78504 14.3012 10.0759 13.1905 10.7429C11.6438 11.6715 10.5503 13.1464 10.1133 14.8963L9.6945 16.5734C9.34183 17.985 8.027 18.905 6.59142 18.7728C5.72125 18.6904 4.80317 18.606 3.91575 18.5275C4.50992 12.4382 8.47071 7.32646 13.9073 5.07246ZM18.2083 36.3036C15.0305 35.927 12.052 34.6112 9.61496 32.545L10.8598 31.9968C12.5034 31.2666 14.3884 31.2532 16.0387 31.9595L17.7809 32.7022C17.918 32.7625 18.0665 32.8085 18.2083 32.8622V36.3036ZM18.2083 23V28.7184L17.5452 28.4357C14.9222 27.3115 11.9188 27.3326 9.31308 28.4903L7.80563 29.1544C7.49896 29.2895 7.17504 29.4314 6.85975 29.5694C5.33887 27.4409 4.37 24.9713 4.00679 22.3838C4.75046 22.4509 5.5085 22.5208 6.22917 22.5898C6.44863 22.61 6.66712 22.6205 6.88371 22.6205C9.96283 22.6205 12.651 20.5524 13.4128 17.503L13.8316 15.8259C14.0204 15.0698 14.4929 14.4315 15.1627 14.03C17.7292 12.49 18.9664 9.50379 18.24 6.601L17.6027 4.04992C18.4268 3.92054 19.2654 3.83333 20.125 3.83333C21.4446 3.83333 22.746 4.00296 24.0168 4.31442L21.4686 11.9504C20.4595 14.9912 21.6488 18.3032 24.3666 20.01L26.0973 21.0833H20.125C19.067 21.0833 18.2083 21.942 18.2083 23ZM42.1667 39.4555L39.6884 36.9782C39.329 36.6189 38.8412 36.4167 38.3333 36.4167H22.0417V31.4563C22.0417 31.4535 22.0417 31.4506 22.0417 31.4467V24.9167H30.1837C30.1846 24.9167 30.1856 24.9167 30.1865 24.9167C30.1875 24.9167 30.1894 24.9167 30.1904 24.9167H38.1033H42.1667V39.4555Z"/>
<path d="M26.8333 28.75H25.875C24.817 28.75 23.9583 29.6087 23.9583 30.6667C23.9583 31.7247 24.817 32.5833 25.875 32.5833H26.8333C27.8913 32.5833 28.75 31.7247 28.75 30.6667C28.75 29.6087 27.8913 28.75 26.8333 28.75Z"/>
<path d="M32.5833 28.75H31.625C30.567 28.75 29.7083 29.6087 29.7083 30.6667C29.7083 31.7247 30.567 32.5833 31.625 32.5833H32.5833C33.6413 32.5833 34.5 31.7247 34.5 30.6667C34.5 29.6087 33.6413 28.75 32.5833 28.75Z"/>
<path d="M38.3333 28.75H37.375C36.317 28.75 35.4583 29.6087 35.4583 30.6667C35.4583 31.7247 36.317 32.5833 37.375 32.5833H38.3333C39.3913 32.5833 40.25 31.7247 40.25 30.6667C40.25 29.6087 39.3913 28.75 38.3333 28.75Z"/>
</svg>
