<svg width="46" height="46" viewBox="0 0 46 46" fill="none" xmlns="http://www.w3.org/2000/svg">
<path d="M36.8958 15.3333H36.4167V13.4167C36.4167 6.01833 30.3983 0 23 0C15.6017 0 9.58333 6.01833 9.58333 13.4167V15.3333H9.10417C4.08442 15.3333 0 19.4177 0 24.4375C0 29.4572 4.08442 33.5417 9.10417 33.5417H14.375C15.433 33.5417 16.2917 32.683 16.2917 31.625V17.25C16.2917 16.192 15.433 15.3333 14.375 15.3333H13.4167V13.4167C13.4167 8.13242 17.7157 3.83333 23 3.83333C28.2843 3.83333 32.5833 8.13242 32.5833 13.4167V15.3333H31.625C30.567 15.3333 29.7083 16.192 29.7083 17.25V31.625C29.7083 32.683 30.567 33.5417 31.625 33.5417H32.5833V40.25C32.5833 41.307 31.7237 42.1667 30.6667 42.1667H29.7083V41.2083C29.7083 40.1503 28.8497 39.2917 27.7917 39.2917H21.0833C20.0253 39.2917 19.1667 40.1503 19.1667 41.2083V44.0833C19.1667 45.1413 20.0253 46 21.0833 46H27.7917H30.6667C33.8378 46 36.4167 43.4211 36.4167 40.25V33.5417H36.8958C41.9156 33.5417 46 29.4572 46 24.4375C46 19.4177 41.9156 15.3333 36.8958 15.3333ZM12.4583 23H11.5C10.442 23 9.58333 23.8587 9.58333 24.9167C9.58333 25.9747 10.442 26.8333 11.5 26.8333H12.4583V29.7083H9.10417C6.1985 29.7083 3.83333 27.3441 3.83333 24.4375C3.83333 21.5309 6.1985 19.1667 9.10417 19.1667H12.4583V23ZM36.8958 29.7083H33.5417V26.8333H34.5C35.558 26.8333 36.4167 25.9747 36.4167 24.9167C36.4167 23.8587 35.558 23 34.5 23H33.5417V19.1667H36.8958C39.8015 19.1667 42.1667 21.5309 42.1667 24.4375C42.1667 27.3441 39.8015 29.7083 36.8958 29.7083Z"/>
</svg>
