<svg width="46" height="46" viewBox="0 0 46 46" fill="none" xmlns="http://www.w3.org/2000/svg">
<path d="M18.6051 10.1449C17.8574 9.39662 16.6426 9.39662 15.8949 10.1449L14.375 11.6647L12.8551 10.1449C12.1074 9.39662 10.8926 9.39662 10.1449 10.1449C9.39662 10.8935 9.39662 12.1064 10.1449 12.8551L11.6647 14.375L10.1449 15.8949C9.39662 16.6435 9.39662 17.8564 10.1449 18.6051C10.5187 18.98 11.0091 19.1667 11.5 19.1667C11.9909 19.1667 12.4813 18.98 12.8551 18.6051L14.375 17.0853L15.8949 18.6051C16.2687 18.98 16.7591 19.1667 17.25 19.1667C17.7409 19.1667 18.2313 18.98 18.6051 18.6051C19.3534 17.8564 19.3534 16.6435 18.6051 15.8949L17.0853 14.375L18.6051 12.8551C19.3534 12.1064 19.3534 10.8935 18.6051 10.1449Z"/>
<path d="M31.625 24.9167C27.926 24.9167 24.9167 27.9269 24.9167 31.625C24.9167 35.3231 27.926 38.3334 31.625 38.3334C35.324 38.3334 38.3333 35.3231 38.3333 31.625C38.3333 27.9269 35.324 24.9167 31.625 24.9167ZM31.625 34.5C30.0401 34.5 28.75 33.2099 28.75 31.625C28.75 30.0401 30.0401 28.75 31.625 28.75C33.2099 28.75 34.5 30.0401 34.5 31.625C34.5 33.2099 33.2099 34.5 31.625 34.5Z"/>
<path d="M45.4385 0.561523C44.6907 -0.186707 43.476 -0.186707 42.7282 0.561523L36.7643 6.52537C35.0405 5.50948 32.8402 5.51229 31.1182 6.6606L28.6419 8.31242L24.54 4.21096C24.5278 4.19832 24.5124 4.1899 24.4997 4.1782C21.7913 1.48429 18.1999 0 14.375 0C10.5332 0 6.92405 1.49693 4.21377 4.21096C1.49693 6.92405 0 10.5332 0 14.375C0 18.2168 1.49693 21.8259 4.21096 24.5362C6.9423 27.2751 10.5847 28.7608 14.3549 28.7608C15.0058 28.7608 15.6609 28.699 16.3155 28.6091L17.3792 29.6737C16.7652 34.1214 18.2504 38.5855 21.4619 41.7872C24.1741 44.5031 27.7832 46 31.625 46C35.4668 46 39.0759 44.5031 41.7862 41.789C44.5031 39.0759 46 35.4668 46 31.625C46 27.7992 44.5148 24.2054 41.819 21.4965C41.8082 21.4848 41.8007 21.4713 41.789 21.461L37.8149 17.4868L39.4873 14.8064C40.5799 13.0564 40.5373 10.9057 39.4929 9.21647L45.4385 3.27087C46.1867 2.52311 46.1867 1.31022 45.4385 0.561523ZM39.075 39.0778C37.0877 41.0694 34.4415 42.1667 31.625 42.1667C28.8085 42.1667 26.1623 41.0694 24.1712 39.075C21.6285 36.5393 20.5583 32.9301 21.3084 29.4191C21.3093 29.414 21.3093 29.4093 21.3103 29.4046C21.3285 29.3162 21.3346 29.2273 21.3402 29.137C21.3421 29.1 21.3505 29.0616 21.3505 29.0251C21.3505 28.954 21.3393 28.8834 21.3313 28.8122C21.3257 28.7594 21.3267 28.706 21.3164 28.6541C21.3075 28.6091 21.2892 28.5661 21.2771 28.5221C21.2569 28.4482 21.2406 28.3724 21.2115 28.3017C21.1938 28.2563 21.1666 28.2161 21.1446 28.1721C21.1109 28.1042 21.0805 28.035 21.0393 27.9718C21.0174 27.9381 20.9883 27.9096 20.9645 27.8778C20.9125 27.808 20.8611 27.7379 20.7998 27.6756C20.796 27.6719 20.7941 27.6672 20.7899 27.6635L18.3365 25.2091C18.3319 25.204 18.3263 25.2012 18.3225 25.1965C18.2687 25.1436 18.2074 25.0996 18.147 25.0538C18.1059 25.022 18.0684 24.9855 18.0254 24.9578C17.9762 24.926 17.922 24.9031 17.87 24.8764C17.8125 24.8455 17.7568 24.8104 17.6973 24.7861C17.5893 24.7421 17.4751 24.7098 17.359 24.6855C17.3553 24.6846 17.3515 24.6827 17.3469 24.6818C17.2584 24.6644 17.1667 24.6607 17.0755 24.656C17.0432 24.6542 17.0104 24.6476 16.9777 24.6476C16.9215 24.6476 16.8649 24.6588 16.8073 24.6635C16.7371 24.6705 16.6665 24.6733 16.5972 24.6864C16.5916 24.6878 16.5851 24.6878 16.579 24.6888C13.0657 25.4389 9.45886 24.3715 6.92031 21.8241C4.93064 19.8377 3.83333 17.1915 3.83333 14.375C3.83333 11.5585 4.93064 8.91231 6.92499 6.92218C8.91231 4.93064 11.5585 3.83333 14.375 3.83333C17.1915 3.83333 19.8377 4.93064 21.825 6.92218C21.833 6.92967 21.8423 6.93528 21.8507 6.94324L27.0219 12.1144C27.0392 12.1326 27.0575 12.1509 27.0757 12.1677L34.0283 19.1208C34.0456 19.1381 34.0629 19.1559 34.0812 19.1732L39.054 24.146C39.0628 24.1549 39.0685 24.1652 39.0769 24.175C41.0694 26.1623 42.1667 28.8085 42.1667 31.625C42.1667 34.4415 41.0694 37.0877 39.075 39.0778ZM31.4055 11.0775L33.2445 9.85052C33.829 9.4598 34.617 9.53748 35.1153 10.0349L36.0255 10.945C36.5154 11.4359 36.6015 12.1893 36.2346 12.7775L35.033 14.7049L31.4055 11.0775Z"/>
<path d="M26.2718 24.3551C27.02 23.6064 27.02 22.3935 26.2718 21.6448L24.3551 19.7282C23.6074 18.9799 22.3926 18.9799 21.6449 19.7282C20.8966 20.4769 20.8966 21.6898 21.6449 22.4385L23.5615 24.3551C23.9354 24.7299 24.4258 24.9166 24.9167 24.9166C25.4075 24.9166 25.8979 24.7299 26.2718 24.3551Z"/>
</svg>
