<svg class="icon" width="46" height="46" viewBox="0 0 46 46" fill="none" xmlns="http://www.w3.org/2000/svg">
<circle cx="23" cy="23" r="23" />
<path d="M23 19.9091C21.1945 19.9091 19.7273 21.3763 19.7273 23.1818C19.7273 24.9872 21.1945 26.4545 23 26.4545C24.8055 26.4545 26.2727 24.9872 26.2727 23.1818C26.2727 21.3763 24.8054 19.9091 23 19.9091Z" fill="white"/>
<path d="M23 15C17.5454 15 12.8873 18.3927 11 23.1818C12.8873 27.9709 17.5454 31.3636 23 31.3636C28.46 31.3636 33.1127 27.9709 35 23.1818C33.1127 18.3927 28.46 15 23 15ZM23 28.6363C19.9891 28.6363 17.5454 26.1927 17.5454 23.1818C17.5454 20.1708 19.9891 17.7273 23 17.7273C26.0109 17.7273 28.4546 20.1709 28.4546 23.1818C28.4546 26.1927 26.0109 28.6363 23 28.6363Z" fill="white"/>
</svg>
