<svg width="172" height="57" viewBox="0 0 172 57" fill="none" xmlns="http://www.w3.org/2000/svg">
<path d="M21.1833 0H22.7128C28.0228 0.115436 33.2463 2.251 36.998 6.03151C35.6127 7.4456 34.1987 8.80197 32.8423 10.2161C30.7356 8.31137 28.196 6.83956 25.4255 6.3201C21.3276 5.45434 16.9122 6.23353 13.478 8.5711C9.7263 11.0241 7.18671 15.1798 6.63839 19.6241C6.03235 24.0106 7.27329 28.628 10.1303 32.0334C12.8719 35.3522 17.0565 37.43 21.3853 37.5743C25.4255 37.8052 29.6389 36.5643 32.5826 33.7361C34.8913 31.7448 35.9591 28.7146 36.3054 25.771C31.5148 25.771 26.7242 25.7999 21.9336 25.771V19.8261H42.106C43.1449 26.2039 41.6443 33.3898 36.796 37.9495C33.5638 41.1817 29.0906 43.0864 24.5309 43.4615C20.1155 43.8944 15.5558 43.0575 11.631 40.9219C6.92698 38.4112 3.17532 34.169 1.32835 29.1764C-0.403185 24.5878 -0.432044 19.3932 1.18406 14.7758C2.65586 10.5624 5.48403 6.83956 9.12026 4.24226C12.6122 1.67382 16.8544 0.25973 21.1833 0Z" fill="#7186A0"/>
<path d="M136.908 1.50067H143.083V42.7112C141.034 42.7112 138.957 42.7401 136.908 42.6823C136.936 28.9744 136.908 15.2375 136.908 1.50067Z" fill="#7186A0"/>
<path d="M55.8429 15.7858C59.6522 15.0644 63.7791 15.8724 66.9247 18.1523C69.7817 20.1724 71.773 23.3469 72.379 26.8099C73.1582 30.8213 72.177 35.2079 69.5797 38.3824C66.7804 41.932 62.1918 43.8367 57.7187 43.5481C53.6207 43.3172 49.6382 41.2683 47.214 37.9206C44.4724 34.2267 43.8087 29.1475 45.3093 24.8187C46.81 20.1724 51.0523 16.6227 55.8429 15.7858ZM56.7086 21.269C55.1502 21.673 53.7073 22.5677 52.6684 23.8375C49.8691 27.1851 50.0422 32.6394 53.1301 35.7562C54.8905 37.5455 57.5455 38.3824 59.9985 37.8918C62.2784 37.4877 64.2697 35.9582 65.3663 33.9381C67.271 30.5039 66.7227 25.771 63.8079 23.0871C61.9321 21.3556 59.1905 20.6341 56.7086 21.269Z" fill="#7186A0"/>
<path d="M86.4333 15.7858C90.791 14.9489 95.5527 16.161 98.8138 19.22C104.124 23.9818 104.701 32.8992 100.17 38.3824C97.4286 41.8454 92.9843 43.7501 88.5977 43.5481C84.4132 43.4327 80.2864 41.3548 77.8045 37.9206C75.0052 34.1401 74.3991 28.9455 75.9864 24.5301C77.5736 20.0281 81.7293 16.5939 86.4333 15.7858ZM87.2991 21.269C85.7407 21.6731 84.2977 22.5677 83.2588 23.8086C80.4884 27.0985 80.6038 32.4663 83.5763 35.6119C85.3367 37.4877 88.0783 38.4112 90.6178 37.8918C92.8688 37.4589 94.889 35.9582 95.9856 33.9381C97.8614 30.475 97.3131 25.7422 94.3695 23.0583C92.4937 21.3267 89.7521 20.6341 87.2991 21.269Z" fill="#7186A0"/>
<path d="M112.377 17.4596C115.696 15.3818 120.112 14.8046 123.69 16.5939C124.816 17.0845 125.739 17.9214 126.634 18.7583C126.663 17.9791 126.634 17.1711 126.663 16.363C128.596 16.3919 130.53 16.363 132.492 16.3919V41.8454C132.463 45.6837 131.482 49.7528 128.712 52.5521C125.681 55.64 121.035 56.5923 116.851 55.9574C112.377 55.2937 108.482 52.0326 106.75 47.9058C108.482 47.0689 110.3 46.4051 112.089 45.626C113.099 47.9924 115.148 50.0125 117.716 50.4743C120.285 50.936 123.257 50.3011 124.931 48.1655C126.72 45.9723 126.72 42.9709 126.634 40.2871C125.306 41.5857 123.777 42.7401 121.93 43.173C117.918 44.2984 113.503 42.9132 110.415 40.2005C107.298 37.4877 105.451 33.3032 105.624 29.1475C105.711 24.4435 108.366 19.9127 112.377 17.4596ZM118.351 21.1536C116.591 21.4422 114.946 22.4234 113.82 23.7798C111.108 27.012 111.108 32.1777 113.849 35.3522C115.408 37.228 117.918 38.2669 120.343 38.0072C122.622 37.7763 124.729 36.3334 125.855 34.3421C127.759 30.9656 127.442 26.3771 124.873 23.4334C123.286 21.6153 120.747 20.7207 118.351 21.1536Z" fill="#7186A0"/>
<path d="M150.5 18.9314C153.963 15.6992 159.302 14.6026 163.746 16.3053C167.96 17.8925 170.644 21.9039 172 26.0307C165.738 28.628 159.504 31.1965 153.242 33.7938C154.107 35.4387 155.435 36.9394 157.224 37.5455C159.735 38.4401 162.736 38.1226 164.843 36.4488C165.68 35.8139 166.344 34.977 166.979 34.169C168.566 35.2367 170.153 36.2757 171.74 37.3434C169.489 40.7199 165.709 43.0864 161.64 43.4615C157.138 44.0098 152.347 42.2783 149.432 38.7575C144.642 33.2166 145.103 23.924 150.5 18.9314ZM153.588 24.2703C152.607 25.6844 152.203 27.416 152.232 29.1186C156.416 27.3871 160.601 25.6556 164.785 23.8952C164.093 22.2791 162.419 21.2979 160.716 21.0381C157.975 20.5475 155.118 22.0194 153.588 24.2703Z" fill="#7186A0"/>
</svg>
