<svg width="172" height="23" viewBox="0 0 172 23" fill="none" xmlns="http://www.w3.org/2000/svg">
<path d="M146.996 8.89016V22.4106H151.318V13.397H167.123V22.4106H171.444V8.89016H146.996ZM150.824 4.50682H167.493C169.839 4.07466 171.506 1.97559 172 0H146.317C146.811 1.97559 148.54 4.01292 150.824 4.50682ZM133.846 22.4106C136.007 21.4846 137.18 19.8794 137.674 18.0273H118.227V0.0617373H113.843V22.4106H133.846ZM81.4314 4.44508H96.8657C99.2118 3.76597 101.126 1.97559 101.62 0.0617373H77.1716V13.2735H97.1744V17.9038H81.4932C79.0237 18.5829 76.9246 20.2498 75.8751 22.4106H101.496V8.89016H81.4932L81.4314 4.44508ZM43.4013 4.50682H60.0704C62.4164 4.07466 64.145 1.97559 64.5772 0H38.8327C39.3266 1.97559 41.0553 4.01292 43.4013 4.50682ZM43.4013 13.3352H60.0704C62.4164 12.9031 64.145 10.804 64.5772 8.82843H38.8327C39.3266 10.804 41.0553 12.8413 43.4013 13.3352ZM43.4013 22.4106H60.0704C62.4164 21.9785 64.145 19.8794 64.5772 17.9038H38.8327C39.3266 19.8794 41.0553 21.9785 43.4013 22.4106Z" fill="#7186A0"/>
<path d="M3.05176e-05 0.0617373C0.493929 2.03733 2.22257 4.01292 4.50685 4.50682H11.5449L11.9153 4.63029V22.3489H16.2987V4.63029L16.6691 4.50682H23.7071C26.0532 3.88945 27.7201 2.03733 28.214 0.0617373V0L3.05176e-05 0.0617373Z" fill="#7186A0"/>
</svg>
