<svg width="172" height="35" viewBox="0 0 172 35" fill="none" xmlns="http://www.w3.org/2000/svg">
<path d="M88.5495 16.5339C87.1292 16.5339 86.1055 16.9996 85.0674 17.4741V28.2101C86.0617 28.3048 86.6317 28.3048 87.5751 28.3048C90.9839 28.3048 91.4512 26.7437 91.4512 24.564V19.4364C91.4512 17.8268 90.917 16.5339 88.5495 16.5339ZM65.9104 15.948C63.5452 15.948 63.0054 17.2464 63.0054 18.8545V19.7581H68.8121V18.8545C68.8121 17.2464 68.2724 15.948 65.9104 15.948ZM22.054 27.1227C22.054 28.3948 22.6542 29.0556 23.9789 29.0556C25.3999 29.0556 26.2414 28.5922 27.2787 28.1162V25.5695H24.1716C22.7004 25.5695 22.054 25.8433 22.054 27.1227ZM110.572 16.5339C108.202 16.5339 107.382 17.8268 107.382 19.4364V25.3108C107.382 26.9244 108.202 28.2213 110.572 28.2213C112.934 28.2213 113.762 26.9244 113.762 25.3108V19.4364C113.761 17.8268 112.934 16.5339 110.572 16.5339ZM10.4439 33.7095H3.47969V16.8531H0V11.0449H3.48049V7.55645C3.48049 2.81735 5.44443 0 11.0266 0H15.6741V5.80984H12.7692C10.5959 5.80984 10.4526 6.62185 10.4526 8.1368L10.4439 11.0441H15.706L15.0906 16.8524H10.4439V33.7095ZM34.2444 33.7533H28.4402L28.1894 32.2853C25.5392 33.7533 23.1741 33.9913 21.6137 33.9913C17.3571 33.9913 15.0914 31.1477 15.0914 27.215C15.0914 22.5754 17.7352 20.9196 22.4648 20.9196H27.2787V19.9165C27.2787 17.5481 27.0072 16.8531 23.3651 16.8531H17.4104L17.9923 11.0449H24.5011C32.4923 11.0449 34.2444 13.5693 34.2444 19.9635V33.7533ZM53.9818 17.2791C50.37 16.6597 49.3327 16.5236 47.5948 16.5236C44.4734 16.5236 43.53 17.2122 43.53 19.8631V24.8777C43.53 27.5287 44.4734 28.2205 47.5948 28.2205C49.3327 28.2205 50.37 28.0819 53.9818 27.4602V33.1259C50.8182 33.8353 48.7571 34.0215 47.0153 34.0215C39.5384 34.0215 36.5666 30.0897 36.5666 24.4096V20.3408C36.5666 14.6559 39.5384 10.7169 47.0153 10.7169C48.7571 10.7169 50.8182 10.904 53.9818 11.6165V17.2791ZM75.7755 24.4096H63.0046V24.8777C63.0046 27.5287 63.9488 28.2205 67.0695 28.2205C69.8749 28.2205 71.5872 28.0819 75.1927 27.4602V33.1259C71.7154 33.8353 69.9035 34.0215 66.4923 34.0215C59.0147 34.0215 56.0413 30.0897 56.0413 24.4096V19.7573C56.0413 14.7873 58.2472 10.7169 65.9096 10.7169C73.5719 10.7169 75.7755 14.7403 75.7755 19.7573V24.4096ZM98.4138 24.5171C98.4138 30.0069 96.8447 34.0112 87.3394 34.0112C83.9067 34.0112 81.8934 33.7095 78.1048 33.1267V1.74502L85.0666 0.583533V11.5608C86.5712 11.0019 88.5184 10.7177 90.2905 10.7177C97.2531 10.7177 98.413 13.8392 98.413 18.8553V24.5171H98.4138ZM120.73 24.6365C120.73 29.3724 118.775 33.9658 110.595 33.9658C102.41 33.9658 100.418 29.3724 100.418 24.6365V20.0638C100.418 15.3255 102.41 10.7312 110.595 10.7312C118.775 10.7312 120.73 15.3255 120.73 20.0638V24.6365ZM143.032 24.6365C143.032 29.3724 141.074 33.9658 132.895 33.9658C124.711 33.9658 122.719 29.3724 122.719 24.6365V20.0638C122.719 15.3255 124.711 10.7312 132.895 10.7312C141.074 10.7312 143.032 15.3255 143.032 20.0638V24.6365ZM165.919 33.7095H158.373L151.99 23.0555V33.7095H145.026V1.74422L151.99 0.582735V21.1608L158.373 11.0449H165.919L158.951 22.0842L165.919 33.7095ZM132.872 16.5339C130.506 16.5339 129.686 17.8268 129.686 19.4364V25.3108C129.686 26.9244 130.506 28.2213 132.872 28.2213C135.234 28.2213 136.069 26.9244 136.069 25.3108V19.4364C136.069 17.8268 135.234 16.5339 132.872 16.5339ZM169.894 29.7338C171.066 29.7338 172 30.6899 172 31.884C172 33.0965 171.065 34.0422 169.885 34.0422C168.71 34.0422 167.757 33.0965 167.757 31.884C167.757 30.6899 168.71 29.7338 169.885 29.7338H169.894ZM169.885 30.0682C168.94 30.0682 168.167 30.881 168.167 31.884C168.167 32.9054 168.941 33.7079 169.894 33.7079C170.847 33.7174 171.609 32.9054 171.609 31.8936C171.609 30.8818 170.847 30.0682 169.894 30.0682H169.885ZM169.484 33.1355H169.102V30.7361C169.303 30.7082 169.494 30.6804 169.781 30.6804C170.144 30.6804 170.381 30.7568 170.526 30.8611C170.667 30.967 170.743 31.1286 170.743 31.357C170.743 31.6739 170.534 31.8641 170.277 31.9414V31.9597C170.487 31.9987 170.629 32.1882 170.678 32.5408C170.733 32.9142 170.792 33.0567 170.829 33.1347H170.429C170.372 33.0567 170.314 32.8378 170.266 32.5217C170.21 32.2168 170.056 32.1022 169.75 32.1022H169.485V33.1355H169.484ZM169.484 31.8076H169.761C170.075 31.8076 170.342 31.6922 170.342 31.3953C170.342 31.1851 170.19 30.9757 169.761 30.9757C169.636 30.9757 169.55 30.9853 169.484 30.994V31.8076Z" fill="#7186A0"/>
</svg>
