<svg width="172" height="37" viewBox="0 0 172 37" fill="none" xmlns="http://www.w3.org/2000/svg">
<path d="M172 16.6115V13.5867H168.244V8.88413L168.117 8.92306L164.589 10.0026L164.519 10.0237V13.5868H158.951V11.6019C158.951 10.6776 159.157 9.97029 159.565 9.49859C159.969 9.03254 160.548 8.79561 161.285 8.79561C161.816 8.79561 162.365 8.92057 162.918 9.16698L163.056 9.22888V6.04327L162.991 6.01931C162.476 5.83396 161.774 5.74062 160.905 5.74062C159.809 5.74062 158.814 5.97905 157.946 6.45158C157.077 6.92478 156.394 7.6003 155.915 8.45918C155.438 9.31706 155.196 10.3079 155.196 11.4044V13.5867H152.58V16.6115H155.196V29.3548H158.951V16.6115H164.519V24.7097C164.519 28.0449 166.093 29.735 169.195 29.735C169.705 29.735 170.241 29.6753 170.789 29.5583C171.347 29.4382 171.727 29.3182 171.951 29.1901L172 29.1608V26.108L171.847 26.209C171.643 26.3447 171.39 26.4557 171.092 26.5382C170.793 26.6223 170.544 26.6644 170.35 26.6644C169.624 26.6644 169.086 26.4685 168.752 26.082C168.415 25.692 168.244 25.01 168.244 24.0559V16.6115H172ZM144.195 26.6649C142.832 26.6649 141.758 26.213 141.001 25.3228C140.239 24.4281 139.853 23.1526 139.853 21.532C139.853 19.86 140.239 18.5514 141.001 17.641C141.759 16.7365 142.823 16.2774 144.164 16.2774C145.466 16.2774 146.503 16.7159 147.245 17.5812C147.991 18.4511 148.37 19.7492 148.37 21.4407C148.37 23.153 148.014 24.4682 147.312 25.3481C146.615 26.2213 145.566 26.6649 144.195 26.6649ZM144.362 13.2068C141.762 13.2068 139.697 13.9687 138.224 15.4713C136.753 16.9741 136.007 19.0537 136.007 21.653C136.007 24.1218 136.735 26.1076 138.171 27.5544C139.608 29.0016 141.563 29.7347 143.982 29.7347C146.502 29.7347 148.526 28.9621 149.998 27.4387C151.47 25.917 152.215 23.8569 152.215 21.3184C152.215 18.811 151.516 16.8104 150.135 15.3733C148.754 13.9356 146.811 13.2068 144.362 13.2068ZM129.953 13.2068C128.184 13.2068 126.721 13.6592 125.603 14.5512C124.479 15.4485 123.909 16.6254 123.909 18.0494C123.909 18.7897 124.032 19.4472 124.274 20.005C124.518 20.5645 124.895 21.0572 125.396 21.4707C125.893 21.8808 126.661 22.3104 127.678 22.7475C128.534 23.0994 129.171 23.3971 129.577 23.6317C129.973 23.8616 130.254 24.0927 130.412 24.3178C130.566 24.5381 130.645 24.8396 130.645 25.2117C130.645 26.271 129.851 26.7865 128.219 26.7865C127.614 26.7865 126.923 26.66 126.166 26.4108C125.415 26.1653 124.706 25.8058 124.064 25.3449L123.908 25.2331V28.8482L123.966 28.8748C124.497 29.12 125.167 29.3269 125.956 29.4896C126.744 29.6525 127.46 29.7353 128.082 29.7353C130.001 29.7353 131.547 29.2808 132.675 28.3835C133.81 27.48 134.385 26.2754 134.385 24.802C134.385 23.7391 134.075 22.8277 133.465 22.0926C132.859 21.3635 131.807 20.6941 130.339 20.1025C129.17 19.6333 128.421 19.2438 128.112 18.9448C127.814 18.6559 127.663 18.2474 127.663 17.7302C127.663 17.2716 127.85 16.9042 128.233 16.6067C128.619 16.3077 129.157 16.1557 129.831 16.1557C130.457 16.1557 131.097 16.2545 131.733 16.4482C132.369 16.6418 132.928 16.9012 133.395 17.2185L133.548 17.3233V13.8941L133.489 13.8689C133.059 13.6843 132.491 13.5264 131.802 13.3983C131.116 13.271 130.494 13.2068 129.953 13.2068ZM114.12 26.6649C112.757 26.6649 111.683 26.213 110.926 25.3228C110.164 24.4281 109.778 23.153 109.778 21.532C109.778 19.86 110.164 18.5514 110.926 17.641C111.683 16.7365 112.747 16.2774 114.09 16.2774C115.391 16.2774 116.428 16.7159 117.17 17.5812C117.917 18.4511 118.295 19.7492 118.295 21.4407C118.295 23.153 117.939 24.4682 117.237 25.3481C116.539 26.2213 115.491 26.6649 114.12 26.6649ZM114.287 13.2068C111.687 13.2068 109.621 13.9687 108.15 15.4713C106.678 16.9741 105.932 19.0537 105.932 21.653C105.932 24.1228 106.66 26.1076 108.097 27.5544C109.533 29.0016 111.488 29.7347 113.907 29.7347C116.427 29.7347 118.452 28.9621 119.924 27.4387C121.395 25.917 122.141 23.8569 122.141 21.3184C122.141 18.811 121.441 16.8104 120.06 15.3733C118.679 13.9356 116.736 13.2068 114.287 13.2068ZM100.232 16.3174V13.5867H96.5228V29.3545H100.232V21.2886C100.232 19.9171 100.543 18.7904 101.156 17.9393C101.762 17.0984 102.57 16.6723 103.555 16.6723C103.889 16.6723 104.264 16.7274 104.671 16.8363C105.072 16.9446 105.364 17.0623 105.535 17.1861L105.691 17.299V13.5597L105.631 13.5339C105.286 13.3872 104.797 13.3131 104.179 13.3131C103.247 13.3131 102.413 13.6126 101.698 14.2023C101.071 14.7206 100.618 15.4312 100.271 16.3174H100.232ZM89.8805 13.2068C88.1789 13.2068 86.6612 13.5717 85.3702 14.291C84.0765 15.0119 83.0761 16.0412 82.3954 17.35C81.7177 18.6556 81.3736 20.1807 81.3736 21.8815C81.3736 23.3713 81.7072 24.7385 82.3666 25.9434C83.0263 27.1504 83.9601 28.0946 85.1421 28.7495C86.3224 29.4036 87.6866 29.7352 89.197 29.7352C90.9597 29.7352 92.4647 29.3828 93.6713 28.6878L93.72 28.6598V25.2617L93.5641 25.3755C93.0176 25.7737 92.4068 26.0915 91.7495 26.3204C91.094 26.5492 90.4963 26.6649 89.9722 26.6649C88.5169 26.6649 87.3485 26.2095 86.5004 25.3117C85.6505 24.4127 85.2196 23.1503 85.2196 21.5618C85.2196 19.9634 85.669 18.6686 86.5547 17.7132C87.4377 16.7606 88.6082 16.2774 90.0335 16.2774C91.2526 16.2774 92.4405 16.6902 93.5645 17.5055L93.72 17.6185V14.0381L93.6698 14.0098C93.2468 13.773 92.67 13.5775 91.9539 13.4293C91.2407 13.2814 90.5433 13.2068 89.8805 13.2068ZM78.8191 13.5868H75.1101V29.3545H78.8191V13.5868ZM77.0025 6.8697C76.392 6.8697 75.8596 7.07752 75.4222 7.48932C74.9829 7.90229 74.7601 8.42224 74.7601 9.03587C74.7601 9.63985 74.9803 10.1503 75.4154 10.5523C75.8476 10.9531 76.3817 11.1563 77.0027 11.1563C77.6235 11.1563 78.1596 10.9531 78.597 10.553C79.0372 10.1503 79.2605 9.64001 79.2605 9.03587C79.2605 8.44371 79.0432 7.92908 78.6151 7.50596C78.1873 7.08368 77.6446 6.8697 77.0025 6.8697ZM67.7482 12.4235V29.3545H71.5334V7.35239H66.2945L59.6354 23.6949L53.1732 7.35239H47.7209V29.3543H51.2781V12.4218H51.4002L58.2241 29.3545H60.9086L67.6261 12.4235H67.7482Z" fill="#7186A0"/>
<path d="M17.4485 17.4485H3.05176e-05V0H17.4485V17.4485Z" fill="#7186A0"/>
<path d="M36.7135 17.4485H19.2654V0H36.7135V17.4485Z" fill="#7186A0"/>
<path d="M17.448 36.7203H3.05176e-05V19.272H17.448V36.7203Z" fill="#7186A0"/>
<path d="M36.7135 36.7203H19.2654V19.272H36.7135V36.7203Z" fill="#7186A0"/>
</svg>
