<svg width="172" height="52" viewBox="0 0 172 52" fill="none" xmlns="http://www.w3.org/2000/svg">
<path fill-rule="evenodd" clip-rule="evenodd" d="M106.7 40.4954C96.7425 47.8583 82.2582 51.781 69.7656 51.781C52.2639 51.781 36.5726 45.3235 24.6232 34.581C23.7179 33.7361 24.5025 32.5895 25.6491 33.2533C38.5039 40.7368 54.3761 45.2028 70.7916 45.2028C81.8358 45.2028 94.0267 42.9095 105.252 38.1417C106.942 37.4779 108.33 39.2884 106.7 40.4954Z" fill="#7186A0"/>
<path fill-rule="evenodd" clip-rule="evenodd" d="M110.865 35.7277C109.597 34.0982 102.415 34.9432 99.2168 35.3656C98.2512 35.4863 98.0702 34.6414 98.9754 34.0379C104.709 29.9944 114.063 31.2014 115.149 32.5291C116.236 33.8569 114.848 43.2716 109.476 47.7376C108.632 48.4014 107.847 48.0393 108.209 47.134C109.416 44.1165 112.132 37.4175 110.865 35.7277Z" fill="#7186A0"/>
<path fill-rule="evenodd" clip-rule="evenodd" d="M99.3979 5.673L99.3979 1.7502C99.3979 1.14669 99.8204 0.784577 100.364 0.784577L117.865 0.784582C118.408 0.784582 118.891 1.20704 118.891 1.7502L118.891 5.0695C118.891 5.61266 118.408 6.33687 117.564 7.54389L108.511 20.459C111.891 20.3986 115.451 20.8814 118.469 22.5713C119.133 22.9334 119.314 23.5369 119.374 24.08L119.374 28.2442C119.374 28.8477 118.771 29.5116 118.107 29.1495C112.735 26.313 105.554 26.0113 99.6393 29.2098C99.0358 29.5116 98.3719 28.9081 98.3719 28.3046L98.3719 24.3214C98.3719 23.7179 98.3719 22.6316 99.0358 21.666L109.537 6.63862L100.424 6.63862C99.8807 6.63862 99.3979 6.21616 99.3979 5.673ZM35.607 29.9944L30.2961 29.9944C29.8133 29.934 29.3909 29.5719 29.3305 29.0891L29.3305 1.81053C29.3305 1.26738 29.8133 0.844916 30.3565 0.844916L35.3053 0.844917C35.8484 0.844917 36.2105 1.26737 36.2709 1.75018L36.2709 5.31088L36.3916 5.31088C37.659 1.87088 40.1333 0.241409 43.3923 0.24141C46.7116 0.241411 48.8239 1.87088 50.2723 5.31088C51.5397 1.87088 54.4968 0.241413 57.6351 0.241413C59.8681 0.241414 62.2821 1.14668 63.7909 3.25896C65.4807 5.55229 65.1186 8.8716 65.1186 11.8288L65.1186 29.0891C65.1186 29.6323 64.6358 30.0547 64.0926 30.0547L58.8421 30.0547C58.299 29.9944 57.8765 29.5719 57.8765 29.0891L57.8765 14.6049C57.8765 13.4582 57.9972 10.5614 57.7558 9.47509C57.3333 7.66456 56.1867 7.12141 54.6175 7.12141C53.3502 7.12141 51.9621 7.96633 51.4189 9.3544C50.8758 10.7425 50.9361 13.0358 50.9361 14.6049L50.9361 29.0891C50.9361 29.6323 50.4533 30.0547 49.9102 30.0547L44.5993 30.0547C44.0561 29.9944 43.6337 29.5719 43.6337 29.0891L43.6337 14.6049C43.6337 11.5874 44.1165 7.06105 40.3747 7.06105C36.5726 7.06105 36.6933 11.4063 36.6933 14.6049L36.6933 29.0891C36.633 29.5719 36.2105 29.9944 35.607 29.9944ZM133.979 0.241431C141.885 0.241433 146.17 7.00073 146.17 15.6309C146.17 23.9593 141.462 30.5979 133.979 30.5979C126.254 30.5979 122.029 23.8386 122.029 15.3895C121.969 6.88003 126.254 0.241429 133.979 0.241431ZM133.979 5.85406C130.056 5.85405 129.815 11.2253 129.815 14.5446C129.815 17.8639 129.754 24.9853 133.919 24.9853C138.022 24.9853 138.264 19.252 138.264 15.7516C138.264 13.4583 138.143 10.6821 137.479 8.50951C136.876 6.57828 135.669 5.85406 133.979 5.85406ZM156.369 29.9944L151.058 29.9944C150.515 29.9341 150.093 29.5116 150.093 29.0288L150.093 1.68985C150.153 1.20705 150.575 0.784589 151.119 0.784589L156.067 0.78459C156.55 0.784591 156.912 1.14671 157.033 1.56916L157.033 5.73337L157.154 5.73337C158.662 1.99162 160.714 0.241437 164.396 0.241438C166.749 0.241439 169.103 1.08634 170.612 3.44003C172 5.61266 172 9.29407 172 11.9495L172 29.1495C171.94 29.6323 171.517 29.9944 170.974 29.9944L165.663 29.9944C165.18 29.9341 164.758 29.572 164.698 29.1495L164.698 14.3032C164.698 11.2856 165.06 6.94039 161.378 6.94039C160.111 6.94039 158.904 7.7853 158.3 9.11302C157.576 10.8028 157.455 12.4323 157.455 14.3032L157.455 29.0288C157.395 29.572 156.912 29.9944 156.369 29.9944ZM85.4569 16.9586C85.4569 19.0106 85.5172 20.7607 84.4912 22.6316C83.6463 24.1404 82.3186 25.0456 80.8098 25.0456C78.7579 25.0456 77.5509 23.4765 77.5509 21.1832C77.5509 16.6569 81.5944 15.8119 85.4569 15.8119L85.4569 16.9586ZM90.8281 29.9341C90.466 30.2358 89.9832 30.2962 89.5607 30.0548C87.8105 28.6063 87.4484 27.8821 86.4828 26.4941C83.586 29.4512 81.4737 30.3565 77.7319 30.3565C73.266 30.3565 69.7656 27.5804 69.7656 22.0884C69.7656 17.7432 72.1193 14.8463 75.4386 13.3979C78.3354 12.1305 82.379 11.8891 85.4569 11.527L85.4569 10.8632C85.4569 9.59581 85.5776 8.08704 84.793 7.00073C84.1291 6.03511 82.9221 5.61264 81.8358 5.61264C79.7839 5.61264 77.9733 6.63862 77.5509 8.81125C77.4302 9.29406 77.1284 9.77685 76.6456 9.77685L71.5158 9.23369C71.0933 9.11299 70.6105 8.81125 70.7312 8.14739C71.9383 1.87089 77.5509 1.80624e-05 82.6204 1.92432e-05C85.2154 1.98476e-05 88.5951 0.663877 90.647 2.65546C93.2421 5.06949 93.0007 8.32845 93.0007 11.8288L93.0007 20.0969C93.0007 22.5712 94.0267 23.6576 94.9923 25.0456C95.3544 25.5284 95.4147 26.1319 94.9923 26.4337C93.8456 27.339 91.9144 29.0288 90.8281 29.9341ZM15.7516 16.9586C15.7516 19.0105 15.8119 20.7607 14.786 22.6316C13.9411 24.1404 12.6133 25.0456 11.1046 25.0456C9.05263 25.0456 7.84561 23.4765 7.84561 21.1832C7.84561 16.6568 11.8891 15.8119 15.7516 15.8119L15.7516 16.9586ZM21.0625 29.934C20.7003 30.2358 20.2175 30.2961 19.7951 30.0547C18.0449 28.6063 17.6828 27.8821 16.7172 26.494C13.8203 29.4512 11.7081 30.3565 7.96631 30.3565C3.50035 30.3565 -3.62009e-06 27.5804 -2.89924e-06 22.0884C-2.3289e-06 17.7432 2.35368 14.8463 5.67298 13.3979C8.56982 12.1305 12.6133 11.8891 15.6912 11.527L15.6912 10.8632C15.6912 9.59579 15.8119 8.08703 15.0274 7.00071C14.3635 6.0351 13.1565 5.61263 12.0702 5.61263C10.0182 5.61263 8.20772 6.6386 7.78526 8.81123C7.66456 9.29404 7.3628 9.77683 6.88 9.77683L1.75017 9.23368C1.32771 9.11298 0.844915 8.81123 0.965617 8.14737C2.17264 1.87088 7.78527 1.81327e-06 12.8547 2.994e-06C15.4498 3.59843e-06 18.8295 0.66386 20.8814 2.65544C23.4765 5.06948 23.2351 8.32843 23.2351 11.8288L23.2351 20.0968C23.2351 22.5712 24.2611 23.6576 25.2267 25.0456C25.5888 25.5284 25.6491 26.1319 25.2267 26.4337C24.08 27.3389 22.1488 29.0288 21.0625 29.934Z" fill="#7186A0"/>
</svg>
